<svg xmlns:xlink="http://www.w3.org/1999/xlink" xmlns="http://www.w3.org/2000/svg" version="1.1" viewBox="0 0 1600 1600" width="512" height="512">
<path transform="translate(347,125)" d="m0 0h937v31h31l1 1v18l-1 12h19l13 1v31h31v1186l-1 1h-30v31h-31v31l-48 1h-920l-1-1-1-30-62-1v-31h-31v-1187h31v-31l1-1h30v-16l1-15h31z" fill="#643915"/>
<path transform="translate(1284,157)" d="m0 0h32v18l-1 12h19l13 1v31h31v1186l-1 1h-30v31h-31v31l-48 1h-920l-1-1-1-30-62-1v-31h-31v-1187h32v882l1 304 60 1 1 1 1 29h217v-28l-3-1-22-1-4-1-1-53v-1101l5-1h25v31l34-1 28 1 1 10v23l-1 68-1 206-1 319 3-1h199l69 1h90l57 1 58-1 22-1h34l1 1v108l1 77 53 1v1h-197l-389-1v32h661l-1-89v-412l-33 1-1-124h-92v123h-32v-217l22-1h136l1-19-1-13-97 1h-61v-126l-2-1h2v-33h-286l-119 1h-65v33l-30 1v-32l1-30 654-1z" fill="#643A15"/>
<path transform="translate(347,125)" d="m0 0h937v31h31v1h-31v30l-1 1h-654v30l-2 32h-30v31h-32v-31l-30 1 1 620v534l26 1 4 2v28l-1 1h-217l-1-1-1-29-60-1-1-1-1-304v-913l1-1h30v-16l1-15h31z" fill="#724516"/>
<path transform="translate(1284,157)" d="m0 0h32v18l-1 12h19l13 1v31h31v1186l-1 1h-30v31h-31v31l-48 1h-920l-1-1-1-30-62-1v-31h-31v-1187h32v882l1 304 60 1 1 1 1 29h248l719 1v-32h31v-1186h-30v1155l-8 1h-22v-751l-33 1-1-124h-92v123h-32v-217l22-1h136l1-19-1-13-97 1h-61v-126l-2-1h2v-33h-286l-119 1h-65v33l-30 1v-32l1-30 654-1z" fill="#47270C"/>
<path transform="translate(628,906)" d="m0 0h199l69 1h90l57 1 58-1 22-1h34l1 1v108l1 77 53 1v1h-197l-389-1v32h-1v-218z" fill="#643A15"/>
<path transform="translate(1316,219)" d="m0 0h30v1186h-31v32h-719v-31h-30v-1062h30l1 1v1029l61 1 1 7 1 22h623l1-7 1-21 6-1 25-1z" fill="#A0591E"/>
<path transform="translate(970,1125)" d="m0 0h317v212l-1 38h5v1h-6v21h-1v-20l-103 1h-97l-105-1-8-1-1-6-1-60v-73l1-89z" fill="#643A15"/>
<path transform="translate(253,219)" d="m0 0h32v882l1 304 60 1 1 1 1 29h967l1-30h30v31h-30v31l-48 1h-920l-1-1-1-30-62-1v-31h-31z" fill="#060404"/>
<path transform="translate(540,250)" d="m0 0h25v31l34-1 28 1 1 10v23l-1 68-1 206v467l-1 36 4 1h-4l1 33 4 2-4 1v140l1 77 20 1 9 1 1 7 1 21h-56l-5-1-1-1029-30-1v1062h30v30l-1 1h-30v-29l-3-1-22-1-4-1-1-53v-1101z" fill="#48270C"/>
<path transform="translate(842,214)" d="m0 0h223l63 1 1 4-1 30v124l-1 1-65 1h-26l-1-1-1-51-1-73h-60l-2-1 1 95 1 19 4 7 15 3 5 2v1l-50 1h-23l-7 1-5-1-3 1v-2h-184l-15 1-3-2h14l-1-62h-92l-1-32h-28l-2-1v-30h30v-19h1v19l8-1h22v-33l65-1z" fill="#633A15"/>
<path transform="translate(626,873)" d="m0 0 45 1h333l128 1 49-1h105l1 3v248h-661v-32h532l-1-92v-94h-34l-30 1-56 1-54-1h-102l-69-1h-186z" fill="#643A15"/>
<path transform="translate(802,520)" d="m0 0 2 4 3 11v7l-1 7-1 2 1 18-1 10 3 4 2 4v16l-2 17h2l1 3 2 1v2l8 1 12-1-17-1v-1h71l53-2 2 2h64l152 1 6 1 68-1 54-2 1 1v253l-1-3-113 1h-17l2-2-1-216h-174l-79 2h-11l-7 1h-22l-18 1-6 1-9-1-6 1-8-2h-31l-4-1-4 1v-2l-7 1-11-1h-12l-23 1-9-1h-8l-7-1-7 1-5-1h-25l-10-2v-2l-6-1v-2h-2l-1-7 2 2 4-1-3-6 7-1 1-7 5-2 13 1h22l5 1 2-1 7 1h55l9-2 4-2 8-1h10l4-1 3 1v-6h-6l-1-1v-7h-6l-4 11-2-1-1-11 1-5v-44h2l-2-10 2-2 2 9 2-2-2-1v-5h1v-17h2l2-5 4-1v-6l3 2z" fill="#643A15"/>
<path transform="translate(285,240)" d="m0 0h1l1 887 3-2 18-1 5 2 2 7 1 31 1 1 2 10 3 6 6 5 10 1 5 1 1 9 1 56 1 38v12l-1 8 92 1 67 1v-59l1-2 5-1h24v-79h1l1 180v53l26 1 4 2v28l-1 1h-217l-1-1-1-29-60-1-1-1-1-304v-773z" fill="#623914"/>
<path transform="translate(1347,219)" d="m0 0h31v1186h-31z" fill="#060405"/>
<path transform="translate(971,249)" d="m0 0h62l1 1 1 73 1 51h26l66-1v2l73-1h85l2 13-1 15-1 4-40 1h-119l-18 1h-14l-29 1-52 1h-20l-17-1-9-1h-50l-7-1-9 3-5 1-5-1h-16l-41-1-7-1-63-1h-16l-43 1h-59l-20-1v-93l1-1 93-1v63l-8 1 12-1h143l41 1h4l5 1 13-1h25l37-1-7-2-9-2-5-9-1-18z" fill="#734617"/>
<path transform="translate(597,280)" d="m0 0 30 1 1 10v23l-1 68-1 206v467l-1 36 4 1h-4l1 33 4 2-4 1v140l1 77 20 1 9 1 1 7 1 21h-56l-5-1-1-1076 1-16-4-1z" fill="#46260C"/>
<path transform="translate(347,125)" d="m0 0h937v31l-659 1-277-1-1-2z" fill="#040303"/>
<path transform="translate(1284,157)" d="m0 0h32v18l-1 12h19l13 1v1217h30v1h-30v31h-1v-31h-30v30h-1v-31h31v-1186h-30v1155l-2-1v-1184l-30-1v29l-13-1h-112l1 158h-32v-125l-2-1h2v-33h-286l-119 1h-65v33l-30 1v-32l1-30 654-1z" fill="#46260C"/>
<path transform="translate(534,500)" d="m0 0h1l1 371v132l-1 96h-1v-6h-56l-4-1v-122l8-1h21v-63h-26l-4-1v-122l3-1 10-1h17l-1-31h-29v-61l19-1h12v-55l1-68 14-2h15z" fill="#633914"/>
<path transform="translate(969,1125)" d="m0 0 2 1v26l-1 85v73l1 66 119 1h194v27l-1 1h-623l-1-1v-29l53 1 229 1v-251z" fill="#46260C"/>
<path transform="translate(802,520)" d="m0 0 2 4 3 11v7l-1 7-1 2 1 18-1 10 3 4 2 4v16l-2 17h2l1 3 2 1v2l8 1 12-1-17-1v-1h71l53-2 2 2h64l152 1 6 1 68-1 54-2 1 1v29l-1 3-38 2-45-1h-220l-79 2h-11l-7 1h-22l-18 1-6 1-9-1-6 1-8-2h-31l-4-1-4 1v-2l-7 1-11-1h-12l-23 1-9-1h-8l-7-1-7 1-5-1h-25l-10-2v-2l-6-1v-2h-2l-1-7 2 2 4-1-3-6 7-1 1-7 5-2 13 1h22l5 1 2-1 7 1h55l9-2 4-2 8-1h10l4-1 3 1v-6h-6l-1-1v-7h-6l-4 11-2-1-1-11 1-5v-44h2l-2-10 2-2 2 9 2-2-2-1v-5h1v-17h2l2-5 4-1v-6l3 2z" fill="#734517"/>
<path transform="translate(626,873)" d="m0 0 45 1h333l128 1 49-1h105l1 3v26l-1 3-50 1h-113l-30 1-56 1-54-1h-102l-69-1h-186z" fill="#724516"/>
<path transform="translate(1284,188)" d="m0 0h30l1 1v30h-29l1 114v44l-1-3-97 1h-61v-1l31-1v-157l90-1h24l10 1z" fill="#643A15"/>
<path transform="translate(626,1093)" d="m0 0h660l1 1v31h-661z" fill="#A15A1F"/>
<path transform="translate(1286,402)" d="m0 0h1v66l-1 34-8-1h-118v123h-32v-217l22-1h136z" fill="#633915"/>
<path transform="translate(817,500)" d="m0 0 92 1 1 1v112h2l1-7-1-3v-6l1-4 1-11 1-13-1-16-1-4h2l-1-7v-6l-1-1v-24l-1-7 3-3h22l1 1 1 32 1 83-1 5-52 2h-36l-35-1v-123z" fill="#B63380"/>
<path transform="translate(628,157)" d="m0 0h469v29l-1 1h-468z" fill="#CC894C"/>
<path transform="translate(347,154)" d="m0 0 1 2h277l3 1v30h-31v62h-31v-63l-176 1h-40v2h-2l-1 28-48 3v1l-9 3h-4v15h-1l-1-20v-31l1-1h30v-16l1-15h31z" fill="#633915"/>
<path transform="translate(676,499)" d="m0 0h76l1 1v125l-2 1h-79l-13-1v-93l1-31z" fill="#E82522"/>
<path transform="translate(1189,500)" d="m0 0h63l1 1v124h-93v-124z" fill="#625851"/>
<path transform="translate(848,750)" d="m0 0h66l26 1 1 55v38l-1 30h-93v-123z" fill="#2B56A9"/>
<path transform="translate(817,250)" d="m0 0h86l6 1v42l-1 80-2 1h-87l-3-2v-79z" fill="#34944B"/>
<path transform="translate(628,156)" d="m0 0h687v1h-31v30l-1 1h-654v30l-2 32-30-1v-62l499-1v-26l1-3h-469z" fill="#96551D"/>
<path transform="translate(1e3 750)" d="m0 0h91l2 1 1 15v78l-56 1h-37l-1-1z" fill="#34944B"/>
<path transform="translate(1066,249)" d="m0 0 62 1v123l-1 1h-62v-124z" fill="#34944B"/>
<path transform="translate(566,344)" d="m0 0h30l1 1-1 249h-30z" fill="#CD8A4D"/>
<path transform="translate(971,249)" d="m0 0h62l1 1 1 73-2 31-2 8-1 5-1 2-12 3h-20l-12-4-3-2v-2l-6-2-4-8-1-10z" fill="#8F342E"/>
<path transform="translate(1150,406)" d="m0 0h8l1 22v71h30v2h-29v123h-32v-217z" fill="#47270D"/>
<path transform="translate(627,231)" d="m0 0h1v19h30l2 29 11 1h19v-16l1-13 4-1h49l4 2 1 6v9l-3 9h-2v2l-8 2-10 2-2 2-4 23-1 4-11 1h-80l-1-31h-28l-2-1v-30h30z" fill="#355325"/>
<path transform="translate(1149,656)" d="m0 0h8l1 1 1 216-1 1h-29l-1-5v-212z" fill="#46260C"/>
<path transform="translate(720,312)" d="m0 0h1v62l-93 1v-62z" fill="#CC894C"/>
<path transform="translate(1148,906)" d="m0 0h9l1 1v108l1 77-1 1h-29l-1-130v-56z" fill="#46260C"/>
<path transform="translate(347,154)" d="m0 0 1 2h277l3 1v30h-31v62h-31v-64l-2-1h2v-27l-215 1-2 2-2 15v11l-1 1h-30v-31h31z" fill="#47270C"/>
<path transform="translate(817,250)" d="m0 0h61l-2 4h-2l1 4h-2l-3 3h-3l-1 4-3 1-3 3-2 1-4 7v2 3l-3 2v3l4-1 1 2-1 8v3l1 5 2-2 3 5 2 10h-2l1 5h-3l-3-1-2 7v3 3 2l2 1v2l2 1-4-1-2 2h-2v4h-6l1 6h2v3l10 1 2 3-1 5-13 4-2 2-6 2-2 3h-16l-3-2v-79z" fill="#40894C"/>
<path transform="translate(1284,157)" d="m0 0h32v18l-1 12h19l13 1v1217h30v1h-30v31h-1v-31h-30v30h-1v-31h31v-1186h-30v1155l-2-1v-1184l-31-1z" fill="#6A4017"/>
<path transform="translate(1255,500)" d="m0 0h23l7 1 1 1v121l-3 1-30 1v-124z" fill="#403839"/>
<path transform="translate(963,249)" d="m0 0h7l1 1 1 94 1 19 4 7 15 3 5 2v1l-43 1-11-1v-2h-3v-124z" fill="#683315"/>
<path transform="translate(1034,249)" d="m0 0h30l1 2v123l-3 1h-26l-1-1-1-51z" fill="#355325"/>
<path transform="translate(596,350)" d="m0 0h1v338h-27l-4-1v-93h30z" fill="#A0591E"/>
<path transform="translate(753,500)" d="m0 0h1l1 5 2 1v2l9-1 8 2 4 9 1 13 1 9v10l1 6-1 4 1 6-1 6 2 10v33l-9 5-9 3-6-1-4-1-1 3z" fill="#90342F"/>
<path transform="translate(1e3 844)" d="m0 0h94v29l-1 1h-93l-1-3z" fill="#355325"/>
<path transform="translate(597,187)" d="m0 0h31v44l-1 19-30-1z" fill="#CC894C"/>
<path transform="translate(569,281)" d="m0 0h24l4 1v57l-1 4h-30v-61z" fill="#355324"/>
<path transform="translate(566,687)" d="m0 0 30 1v62h-30z" fill="#CD8A4D"/>
<path transform="translate(564,347)" d="m0 0h1v811h-1l-1-207v-196l-2-13 1-7v-22l1-29v-82l-2-11v-12l-1-18v-127l1-27v-39z" fill="#3A200C"/>
<path transform="translate(752,495)" d="m0 0 6 1 4-1 1 1h14l4-1 10 6 2 8v23l-4 1 1 8v12 1l1 4h-2l-2 2-1-9-1 1 1 9h-2l1 2v43l-2 5h-1l-1-29-1-5-1-6 1-8-1-5 1-4-1-4v-16l-1-6-1-10-3-9-11-1-4 1-2-1v-2l-3-1v-5l-59-1v-1l52-1z" fill="#6B3317"/>
<path transform="translate(1346,278)" d="m0 0h1v1127h30v1h-30v31h-1v-31h-30v30h-1v-31h31z" fill="#45260C"/>
<path transform="translate(566,250)" d="m0 0h31v31h-31z" fill="#CC894C"/>
<path transform="translate(1284,157)" d="m0 0h32v18l-1 12h-31z" fill="#060404"/>
<path transform="translate(1316,1406)" d="m0 0h30v31h-31z" fill="#030203"/>
<path transform="translate(316,157)" d="m0 0h31v29l-1 1h-30z" fill="#030203"/>
<path transform="translate(285,187)" d="m0 0 31 1v13l-1 17h-30z" fill="#040203"/>
<path transform="translate(1284,188)" d="m0 0h30l1 1v30h-12l-18-1z" fill="#A15A1F"/>
<path transform="translate(1316,188)" d="m0 0h30v30h-30z" fill="#030203"/>
<path transform="translate(629,188)" d="m0 0h464l-3 2h-12l-5 1h-10l-7 1-7-2-12 1-14-1-9 1-7-1-5 1h-24l-7-1-11 1h-9l-13-1-3 1-2-1h-253l-38 3-8 1v2l-3 2-1 40h-1z" fill="#3A200C"/>
<path transform="translate(671,500)" d="m0 0h18l1 29-1 1h-29v-29z" fill="#CD8A4D"/>
<path transform="translate(849,1220)" d="m0 0h26l1 3v24h-28v-26z" fill="#47270C"/>
<path transform="translate(1189,500)" d="m0 0h1v31h-21l2-2 7-2 3-6v-8l-4-1-7 1-2 3-1 12-1 3h-6v-30z" fill="#CD8A4D"/>
<path transform="translate(963,249)" d="m0 0h7l1 3-1 34h-1l-1-19v-5h-2l-3-5h-13l-1 5-4 1-1 1-1 17v16l1 4v67l2 6h-6v-124z" fill="#47270C"/>
<path transform="translate(1055,1220)" d="m0 0 7 1 1 4-3 1-1 3h2l1-3 1 5-3 1-1 2 4-1-1 2v11l-11 1-14-1-1-7v-10l1-7 7-1h10z" fill="#48270C"/>
<path transform="translate(840,500)" d="m0 0h97v2l-15 1h-9l1 13-1 20 2 1v13l-1 3 1 1 1 19-1 10-1 14-1 2v6l1 3-2 6h-2l-1-112-69-1z" fill="#90332F"/>
<path transform="translate(540,250)" d="m0 0h25v32l-4-5-2-8-3-9h-8l-6 4-4 5-1 4h-2v-22z" fill="#3A200C"/>
<path transform="translate(789,609)" d="m0 0 7 1 1 3v5l6 1 1 6-2 1-3-1-3 1h-43l1-5 10 1 12-4 4-3h2v-4h2l1 10 3-6z" fill="#693316"/>
<path transform="translate(908,251)" d="m0 0h1v42l-1 80-2 1h-7l4-1 1-8 1-3-1-30v-29l1-12 2-3z" fill="#40894C"/>
<path transform="translate(347,154)" d="m0 0 1 2h235v1h-15l-1 2v-2l-216 1-2 2-1 9h-1v-12h-31v-1h31z" fill="#482B12"/>
<path transform="translate(943,1213)" d="m0 0h1l1 16 1 36-1 11v33l-2 18h-1v-112z" fill="#3A200C"/>
<path transform="translate(667,359)" d="m0 0h6l6 6-1 5-7 1-9-1-5-1h-6l-1 2-11-2v-1l11-1 1-1-4-1v-2h2v-2l4-1h11z" fill="#A15A1F"/>
<path transform="translate(1148,906)" d="m0 0h9l1 1-1 24-2-1-4-17h-10l-4 2h-7l-1 3-1-11z" fill="#3A200C"/>
<path transform="translate(975,188)" d="m0 0h118l-3 2h-12l-5 1h-10l-7 1-7-2-12 1-14-1-9 1-7-1-5 1h-24l-3-1z" fill="#3A200C"/>
<path transform="translate(566,1407)" d="m0 0h30v29l-1 1h-13v-1h12l-1-7-2-6-2-8-8-3h-14z" fill="#391F0B"/>
<path transform="translate(849,1220)" d="m0 0h26l1 3-1 23-3-1h2l-1-7v-13h-9l-9 4-2 9h-3l1 6 2 2h-4z" fill="#3B200C"/>
<path transform="translate(629,188)" d="m0 0h53l-2 2-38 3-8 1v2l-3 2-1 40h-1z" fill="#391F0B"/>
<path transform="translate(598,474)" d="m0 0h1l1 66 1 19v28l-3 1-1-16v-26z" fill="#3A200C"/>
<path transform="translate(1121,250)" d="m0 0h7v123l-1 1h-13v-1l12-1 1-60h-10l1-5 4-1h4l1-55h-6z" fill="#42894D"/>
<path transform="translate(474,970)" d="m0 0h18v1l-14 2-2 3v114l31 1v1h-33z" fill="#46260C"/>
<path transform="translate(789,609)" d="m0 0 7 1 1 3v5l6 1 1 6-2 1-3-1-3 1h-10z" fill="#643A15"/>
<path transform="translate(1150,406)" d="m0 0h8v18h-1l-2-9-5-5h-6l-10 5h-3l-2 4v-12z" fill="#3A200C"/>
<path transform="translate(1346,1366)" d="m0 0h1v39h30v1h-30v31h-1v-31h-30v30h-1v-31h31z" fill="#5E3D22"/>
<path transform="translate(595,192)" d="m0 0h1l1 57h-31l1-4h2v3l22-1 1-7 2-6z" fill="#3A200C"/>
<path transform="translate(284,188)" d="m0 0h1v30h26v1l-12 1v1l-9 3h-4v15h-1l-1-20z" fill="#5F3E21"/>
<path transform="translate(598,331)" d="m0 0h1v106h-1l-1-92-1-6 1-1z" fill="#3B200C"/>
<path transform="translate(627,314)" d="m0 0h1v61l19 1-4 3h-13l-3-2z" fill="#6A3F15"/>
<path transform="translate(785,531)" d="m0 0 2 1 1 8 2 1v12 1l1 4h-2l-2 2-1-9-2-3v-15z" fill="#724516"/>
<path transform="translate(511,564)" d="m0 0h17v1l-14 2h-5l-1 3-1 25-2 1v-31z" fill="#46260C"/>
<path transform="translate(492,688)" d="m0 0h10l-1 2-15 1-9 3-1 1-1 34h-1v-40z" fill="#46260C"/>
<path transform="translate(597,280)" d="m0 0 12 1-1 2h-2l-1 3-4 3h-2v24h-1l-1-31-4-1z" fill="#3B210C"/>
<path transform="translate(474,782)" d="m0 0h24v1l-13 1-9 2-1 26h-1l-1-11v-18z" fill="#46260C"/>
<path transform="translate(969,1125)" d="m0 0h1v16l-2-3v-5h-2v-2l-5-2h-4-7l-3-3z" fill="#3A200C"/>
<path transform="translate(659,1375)" d="m0 0 3 1v2h2v5l-2 3v17h2v2l-5-1z" fill="#44260D"/>
<path transform="translate(626,166)" d="m0 0h1l1 21h-31v-1l20-1h6v-6l2-3z" fill="#3A200C"/>
<path transform="translate(1149,656)" d="m0 0h8v18l-2-1-2-10-3-4-6-1v-1z" fill="#3B200C"/>
<path transform="translate(1286,219)" d="m0 0h28l1 3h-25l-3 1z" fill="#3C210C"/>
<path transform="translate(683,362)" d="m0 0 2 1v3h4l1 4-1 2h-6l-2-2-1-3 2-1-3-2z" fill="#A15A1F"/>
<path transform="translate(627,375)" d="m0 0 20 1-4 3h-13l-3-2z" fill="#643A15"/>
<path transform="translate(598,1343)" d="m0 0h1l1 23 2 8h-4z" fill="#3A200C"/>
<path transform="translate(789,541)" d="m0 0h1v12 1l1 4h-2l-2 2-1-13 1-2h2z" fill="#693316"/>
<path transform="translate(1157,860)" d="m0 0h1l1 13h-3v-12z" fill="#3B200C"/>
</svg>